# xmcd
#
# Track frame offsets:
#	150
#	13569
#	30472
#	46011
#	62545
#	72870
#	90429
#	99645
#	117137
#	128060
#	141558
#	154555
#
# Disc length: 2242 seconds
# Revision: 0
# Processed by: cddbd v1.5.2PL0 Copyright (c) Steve Scherf et al.
# Submitted via: dBpowerAMP V12.0
#
DISCID=9008c00c
DTITLE=Deer Creek Boys - Midnight and Dawn
DYEAR=2017
DGENRE=Bluegrass
TTITLE0=High Wire
TTITLE1=Backwater
TTITLE2=Midnight and Dawn
TTITLE3=The Real World
TTITLE4=Been All Around This World
TTITLE5=The Cowboy
TTITLE6=Airmail Special
TTITLE7=Looks Like Love
TTITLE8=Headbanger
TTITLE9=I Quit
TTITLE10=Love's Raining Down
TTITLE11=Paralyzed
EXTD=
EXTT0=
EXTT1=
EXTT2=
EXTT3=
EXTT4=
EXTT5=
EXTT6=
EXTT7=
EXTT8=
EXTT9=
EXTT10=
EXTT11=
PLAYORDER=
